<svg version="1.1" xmlns="http://www.w3.org/2000/svg" viewBox="0 0 1024 1024" preserveAspectRatio="xMidYMid meet"><path d="M0 0 C7.59 0 15.18 0 23 0 C24.093125 2.18882812 25.18625 4.37765625 26.3125 6.6328125 C29.1961504 12.40390678 32.09006495 18.16975092 34.99169922 23.93182373 C36.85535151 27.63388381 38.71567349 31.33761281 40.57568359 35.04150391 C41.53817525 36.95625847 42.50207943 38.87030354 43.46728516 40.78369141 C44.87773476 43.58050862 46.28312125 46.37981807 47.6875 49.1796875 C48.12175293 50.03787079 48.55600586 50.89605408 49.00341797 51.78024292 C49.59533936 52.9638591 49.59533936 52.9638591 50.19921875 54.17138672 C50.54815186 54.86481171 50.89708496 55.55823669 51.2565918 56.27267456 C52 58 52 58 52 60 C52.66 60 53.32 60 54 60 C54.26627197 59.14075928 54.53254395 58.28151855 54.80688477 57.39624023 C56.00694985 53.98021704 57.45117727 50.88713172 59.08984375 47.66015625 C59.39051254 47.06433746 59.69118134 46.46851868 60.0009613 45.85464478 C60.6439718 44.58091304 61.28869545 43.30804493 61.93499756 42.03598022 C63.63344842 38.69248792 65.31923697 35.34264042 67.00390625 31.9921875 C67.34220459 31.31973495 67.68050293 30.64728241 68.02905273 29.95445251 C71.71712272 22.60366525 75.25663482 15.18422341 78.76147461 7.74438477 C79.17792236 6.86322998 79.59437012 5.9820752 80.0234375 5.07421875 C80.38356934 4.30682373 80.74370117 3.53942871 81.11474609 2.7487793 C82 1 82 1 83 0 C84.63472882 -0.08700342 86.27314055 -0.10701063 87.91015625 -0.09765625 C88.89951172 -0.09443359 89.88886719 -0.09121094 90.90820312 -0.08789062 C91.94912109 -0.07951172 92.99003906 -0.07113281 94.0625 -0.0625 C95.62967773 -0.05573242 95.62967773 -0.05573242 97.22851562 -0.04882812 C99.8190666 -0.03699913 102.40950559 -0.02051689 105 0 C106.03330572 5.93417465 106.13548697 11.69366577 106.11352539 17.70874023 C106.11367142 18.76314804 106.11381744 19.81755585 106.1139679 20.90391541 C106.11327394 24.3721628 106.1055058 27.84035579 106.09765625 31.30859375 C106.09579023 33.71997549 106.0943672 36.13135761 106.09336853 38.54273987 C106.08955783 44.87695367 106.07973991 51.21114441 106.06866455 57.54534912 C106.05841931 64.01395353 106.05386424 70.48256168 106.04882812 76.95117188 C106.03811633 89.63412441 106.02125063 102.31706097 106 115 C101.93360175 116.1366726 98.00729242 116.14737223 93.8125 116.125 C93.07580078 116.12886719 92.33910156 116.13273438 91.58007812 116.13671875 C86.12668491 116.12668491 86.12668491 116.12668491 85 115 C84.87513046 112.62798453 84.81399948 110.28359657 84.79467773 107.90991211 C84.78477814 107.16849472 84.77487854 106.42707733 84.76467896 105.66319275 C84.73297534 103.20127607 84.70827174 100.73934007 84.68359375 98.27734375 C84.66303186 96.57482895 84.6420356 94.87231935 84.62062073 93.16981506 C84.56532101 88.68012691 84.51594672 84.19039208 84.46777344 79.70062256 C84.41761594 75.12263822 84.36189992 70.54472197 84.30664062 65.96679688 C84.19896249 56.9779227 84.09753912 47.9889895 84 39 C83.70154678 39.59912704 83.40309357 40.19825409 83.09559631 40.8155365 C79.9998022 47.02918151 76.90123521 53.24143786 73.80102539 59.45288086 C72.64308045 61.77381165 71.48585244 64.09510027 70.3293457 66.41674805 C68.67065013 69.74621534 67.00941345 73.0744037 65.34765625 76.40234375 C64.82784683 77.44712387 64.30803741 78.49190399 63.7724762 79.56834412 C63.29205368 80.52926468 62.81163116 81.49018524 62.31665039 82.48022461 C61.89251358 83.33071884 61.46837677 84.18121307 61.03138733 85.05747986 C60 87 60 87 59 88 C57.21059028 88.09908783 55.41714492 88.12970379 53.625 88.125 C52.64789062 88.12757813 51.67078125 88.13015625 50.6640625 88.1328125 C48 88 48 88 45 87 C43.47814945 84.49960255 42.1261628 82.04468088 40.8125 79.4375 C40.41885254 78.6746167 40.02520508 77.9117334 39.61962891 77.12573242 C38.40150656 74.75618396 37.19863364 72.37945845 36 70 C35.64180176 69.29198242 35.28360352 68.58396484 34.91455078 67.85449219 C32.58692906 63.2475351 30.29308766 58.62425243 28 54 C25.69 49.38 23.38 44.76 21 40 C20.67 64.75 20.34 89.5 20 115 C19.01 115.495 19.01 115.495 18 116 C17.34 115.67 16.68 115.34 16 115 C16.33 115.99 16.66 116.98 17 118 C16.34 118 15.68 118 15 118 C15 117.01 15 116.02 15 115 C13.75283203 115.10828125 13.75283203 115.10828125 12.48046875 115.21875 C11.39378906 115.3115625 10.30710937 115.404375 9.1875 115.5 C8.10855469 115.5928125 7.02960937 115.685625 5.91796875 115.78125 C3 116 3 116 0 116 C-1.57846759 114.42153241 -1.12597741 112.8394049 -1.12698364 110.64797974 C-1.12980347 109.7085553 -1.13262329 108.76913086 -1.13552856 107.80123901 C-1.13350433 106.76226471 -1.1314801 105.72329041 -1.12939453 104.65283203 C-1.13114685 103.56510498 -1.13289917 102.47737793 -1.13470459 101.35668945 C-1.1391264 97.74038117 -1.13618355 94.12412133 -1.1328125 90.5078125 C-1.13348554 88.00536083 -1.13445557 85.50290921 -1.13571167 83.00045776 C-1.13718917 77.74623109 -1.13512747 72.49201713 -1.13037109 67.23779297 C-1.12493411 61.16152606 -1.126687 55.08529273 -1.1321975 49.00902665 C-1.13728174 43.16937318 -1.13674403 37.32973248 -1.13381577 31.49007797 C-1.13314719 29.00290802 -1.1339725 26.51573722 -1.13629532 24.02856827 C-1.13882707 20.55434126 -1.1349735 17.08017919 -1.12939453 13.60595703 C-1.13141876 12.57103119 -1.13344299 11.53610535 -1.13552856 10.46981812 C-1.13270874 9.52475403 -1.12988892 8.57968994 -1.12698364 7.60598755 C-1.12660662 6.78412523 -1.12622959 5.96226292 -1.12584114 5.11549568 C-1 3 -1 3 0 0 Z " fill="#D806B6" transform="translate(667,456)"/><path d="M0 0 C6.93 0 13.86 0 21 0 C21.01981934 2.16425537 21.03963867 4.32851074 21.06005859 6.55834961 C21.12717399 13.73491622 21.20480965 20.91134183 21.28752708 28.08774471 C21.33732505 32.43582449 21.38365561 36.78388189 21.421875 41.13208008 C21.45893742 45.33378057 21.5053522 49.53528604 21.55806351 53.73681831 C21.57649674 55.33421954 21.59164487 56.93166239 21.60334396 58.52912712 C21.29075839 73.17590177 21.29075839 73.17590177 26.625 86.4375 C29 89.83526012 29 89.83526012 29 92 C30.65538958 92.69419563 32.32636023 93.35103764 34 94 C34.65484375 94.26425781 35.3096875 94.52851562 35.984375 94.80078125 C43.864581 97.7488725 51.42885567 98.33738576 59.2578125 94.89453125 C65.75200674 91.56006829 68.3538525 86.60519125 71 80 C72.04103983 75.85456306 72.16952199 71.79806804 72.20532227 67.54760742 C72.21522186 66.8153595 72.22512146 66.08311157 72.23532104 65.32867432 C72.26677625 62.92097143 72.29162989 60.51324884 72.31640625 58.10546875 C72.3369896 56.43109133 72.35798643 54.75671895 72.37937927 53.08235168 C72.43445738 48.68478484 72.48392929 44.28717221 72.53222656 39.88952637 C72.58254599 35.39831488 72.63817745 30.90716953 72.69335938 26.41601562 C72.80076643 17.61073159 72.90175869 8.80539108 73 0 C80.26 0 87.52 0 95 0 C95.04532152 9.86684247 95.0819567 19.73361493 95.10362434 29.60053825 C95.11402769 34.1829505 95.12812338 38.76528737 95.15087891 43.34765625 C95.17273094 47.77618264 95.18459452 52.20463686 95.18975449 56.63321304 C95.19342817 58.31635803 95.20060151 59.99949941 95.21146011 61.68261337 C95.31318394 78.11497346 94.08692908 93.63784673 82 106 C69.503877 116.19889595 56.30224308 120.11830463 40.25 118.5625 C27.81732257 116.49727119 15.63860376 110.17915934 8 100 C5.95994696 96.77206797 4.34292611 93.57296764 3 90 C2.62851585 89.10106773 2.62851585 89.10106773 2.24952698 88.18397522 C-0.88557217 79.51388715 -0.37741439 70.60059561 -0.29296875 61.5234375 C-0.28736409 59.74411377 -0.28309811 57.96478536 -0.28010559 56.18545532 C-0.26872528 51.53296828 -0.23931782 46.88076825 -0.20599365 42.22839355 C-0.17514478 37.4687081 -0.16156877 32.70897565 -0.14648438 27.94921875 C-0.11444065 18.63266698 -0.06172948 9.31640241 0 0 Z " fill="#7539EE" transform="translate(539,456)"/><path d="M0 0 C0.77279297 0.00410889 1.54558594 0.00821777 2.34179688 0.01245117 C3.60443359 0.01535156 3.60443359 0.01535156 4.89257812 0.01831055 C6.21322266 0.03667969 6.21322266 0.03667969 7.56054688 0.05541992 C8.88119141 0.05638672 8.88119141 0.05638672 10.22851562 0.05737305 C16.77974573 0.10251935 16.77974573 0.10251935 19.06054688 1.24291992 C19.97998047 3.34521484 19.97998047 3.34521484 20.95898438 6.22338867 C21.34578369 7.34060303 21.73258301 8.45781738 22.13110352 9.60888672 C22.34155304 10.22597504 22.55200256 10.84306335 22.76882935 11.47885132 C23.95773515 14.95893267 25.17460646 18.42917284 26.39257812 21.89916992 C26.66772751 22.68357956 26.94287689 23.4679892 27.22636414 24.27616882 C31.37691784 36.04812577 35.77094355 47.73192286 40.12304688 59.43041992 C51.20607906 89.25345195 51.20607906 89.25345195 56.31054688 103.55541992 C56.71023682 104.67392334 57.10992676 105.79242676 57.52172852 106.94482422 C60.06054688 114.1051267 60.06054688 114.1051267 60.06054688 115.24291992 C52.80054688 115.24291992 45.54054688 115.24291992 38.06054688 115.24291992 C37.42246094 113.46143555 36.784375 111.67995117 36.12695312 109.84448242 C35.29238283 107.51893822 34.45774386 105.19341866 33.62304688 102.86791992 C33.20216797 101.69229492 32.78128906 100.51666992 32.34765625 99.30541992 C31.94482422 98.18393555 31.54199219 97.06245117 31.12695312 95.90698242 C30.75513916 94.87009277 30.3833252 93.83320312 30.00024414 92.76489258 C29.1310263 90.29489943 29.1310263 90.29489943 28.06054688 88.24291992 C27.06724365 88.24815674 26.07394043 88.25339355 25.05053711 88.25878906 C21.33993442 88.27698762 17.62933561 88.2884059 13.91870117 88.29785156 C12.31745743 88.30285797 10.7162182 88.30966507 9.11499023 88.31835938 C6.8038623 88.33058757 4.49279519 88.33618528 2.18164062 88.34057617 C1.47406113 88.34573746 0.76648163 88.35089874 0.03746033 88.35621643 C-4.40353483 88.35670959 -8.57247997 87.96368248 -12.93945312 87.24291992 C-13.08640625 87.83975586 -13.23335937 88.4365918 -13.38476562 89.05151367 C-14.98554193 95.24302202 -16.8799563 101.31615792 -18.93945312 107.36791992 C-19.18840332 108.12645264 -19.43735352 108.88498535 -19.69384766 109.66650391 C-20.35130585 111.55944101 -21.13648696 113.40697125 -21.93945312 115.24291992 C-24.82210462 116.20380375 -26.61607583 116.35962933 -29.60742188 116.34057617 C-30.50009766 116.33735352 -31.39277344 116.33413086 -32.3125 116.33081055 C-33.7056543 116.31824219 -33.7056543 116.31824219 -35.12695312 116.30541992 C-36.06732422 116.3009082 -37.00769531 116.29639648 -37.9765625 116.29174805 C-40.29759349 116.27996616 -42.61848023 116.26265878 -44.93945312 116.24291992 C-42.95239071 110.21102883 -40.88925613 104.21140188 -38.75195312 98.23120117 C-38.45319778 97.39332062 -38.15444244 96.55544006 -37.84663391 95.69216919 C-36.87878683 92.97948446 -35.90928336 90.26739623 -34.93945312 87.55541992 C-34.60553558 86.62085968 -34.27161804 85.68629944 -33.92758179 84.72341919 C-29.32605631 71.84829406 -24.6865504 58.98850786 -19.95336914 46.16113281 C-17.49451236 39.49683389 -15.06459701 32.82364106 -12.66601562 26.13745117 C-11.83900687 23.83861664 -11.01162523 21.5399166 -10.18417358 19.24124146 C-9.65011358 17.75374371 -9.11803802 16.26553183 -8.58804321 14.77658081 C-7.85468708 12.7166609 -7.11456951 10.65928645 -6.37304688 8.60229492 C-5.95079834 7.42119141 -5.5285498 6.24008789 -5.09350586 5.02319336 C-3.17343611 0.39747847 -3.17343611 0.39747847 0 0 Z M6.06054688 32.24291992 C4.34554175 37.02798188 2.63671508 41.81518758 0.93359375 46.60449219 C0.35326 48.23367858 -0.22876193 49.86226465 -0.8125 51.49023438 C-1.65092682 53.82941668 -2.48327249 56.17068586 -3.31445312 58.51245117 C-3.70818115 59.60478813 -3.70818115 59.60478813 -4.10986328 60.7191925 C-5.15944465 63.69201645 -5.93945312 66.0651761 -5.93945312 69.24291992 C3.30054688 69.24291992 12.54054688 69.24291992 22.06054688 69.24291992 C17.96844111 56.8029184 13.77755792 44.45876904 9.06054688 32.24291992 C8.07054687 32.24291992 7.08054687 32.24291992 6.06054688 32.24291992 Z " fill="#F80082" transform="translate(843.939453125,455.757080078125)"/><path d="M0 0 C7.59 0 15.18 0 23 0 C26.625 7.25 26.625 7.25 27.81079102 9.63037109 C29.48388577 12.98793391 31.16736494 16.33799467 32.90234375 19.6640625 C33.72412109 21.25347656 33.72412109 21.25347656 34.5625 22.875 C35.05878906 23.82117188 35.55507813 24.76734375 36.06640625 25.7421875 C36.37449219 26.48726563 36.68257812 27.23234375 37 28 C36.67 28.66 36.34 29.32 36 30 C35.731875 29.195625 35.46375 28.39125 35.1875 27.5625 C34.5996875 26.2940625 34.5996875 26.2940625 34 25 C33.01 24.67 32.02 24.34 31 24 C31 22.68 31 21.36 31 20 C30.34 20 29.68 20 29 20 C28.74605469 19.27554687 28.49210938 18.55109375 28.23046875 17.8046875 C26.41253216 12.69812405 24.57897635 7.77110625 22 3 C20.0509375 3.2784375 20.0509375 3.2784375 18.0625 3.5625 C13.19452174 4.11884037 8.84045995 3.69149428 4 3 C2.6797798 8.00292465 2.86714167 12.98184992 2.88647461 18.11450195 C2.88632858 19.12960342 2.88618256 20.1447049 2.8860321 21.19056702 C2.88672777 24.53982697 2.89450403 27.88903104 2.90234375 31.23828125 C2.90420916 33.56284047 2.90563248 35.88740008 2.90663147 38.21195984 C2.91044698 44.32590829 2.92026905 50.43983292 2.93133545 56.55377197 C2.94157032 62.79430825 2.94613354 69.03484837 2.95117188 75.27539062 C2.96189216 87.51693754 2.97895701 99.75846679 3 112 C7.62 112 12.24 112 17 112 C17 86.59 17 61.18 17 35 C18.98 34.505 18.98 34.505 21 34 C21.33 35.98 21.66 37.96 22 40 C21.67 40 21.34 40 21 40 C20.67 64.75 20.34 89.5 20 115 C19.01 115.495 19.01 115.495 18 116 C17.34 115.67 16.68 115.34 16 115 C16.33 115.99 16.66 116.98 17 118 C16.34 118 15.68 118 15 118 C15 117.01 15 116.02 15 115 C13.75283203 115.10828125 13.75283203 115.10828125 12.48046875 115.21875 C11.39378906 115.3115625 10.30710937 115.404375 9.1875 115.5 C8.10855469 115.5928125 7.02960937 115.685625 5.91796875 115.78125 C3 116 3 116 0 116 C-1.57846759 114.42153241 -1.12597741 112.8394049 -1.12698364 110.64797974 C-1.12980347 109.7085553 -1.13262329 108.76913086 -1.13552856 107.80123901 C-1.13350433 106.76226471 -1.1314801 105.72329041 -1.12939453 104.65283203 C-1.13114685 103.56510498 -1.13289917 102.47737793 -1.13470459 101.35668945 C-1.1391264 97.74038117 -1.13618355 94.12412133 -1.1328125 90.5078125 C-1.13348554 88.00536083 -1.13445557 85.50290921 -1.13571167 83.00045776 C-1.13718917 77.74623109 -1.13512747 72.49201713 -1.13037109 67.23779297 C-1.12493411 61.16152606 -1.126687 55.08529273 -1.1321975 49.00902665 C-1.13728174 43.16937318 -1.13674403 37.32973248 -1.13381577 31.49007797 C-1.13314719 29.00290802 -1.1339725 26.51573722 -1.13629532 24.02856827 C-1.13882707 20.55434126 -1.1349735 17.08017919 -1.12939453 13.60595703 C-1.13141876 12.57103119 -1.13344299 11.53610535 -1.13552856 10.46981812 C-1.13270874 9.52475403 -1.12988892 8.57968994 -1.12698364 7.60598755 C-1.12660662 6.78412523 -1.12622959 5.96226292 -1.12584114 5.11549568 C-1 3 -1 3 0 0 Z " fill="#A021D3" transform="translate(667,456)"/><path d="M0 0 C0.33 1.98 0.66 3.96 1 6 C0.67 6 0.34 6 0 6 C-0.33 30.75 -0.66 55.5 -1 81 C-1.99 81.495 -1.99 81.495 -3 82 C-3.66 81.67 -4.32 81.34 -5 81 C-4.67 81.99 -4.34 82.98 -4 84 C-4.66 84 -5.32 84 -6 84 C-6 83.01 -6 82.02 -6 81 C-6.84304688 81.08378906 -7.68609375 81.16757812 -8.5546875 81.25390625 C-10.19824219 81.40666016 -10.19824219 81.40666016 -11.875 81.5625 C-12.96554687 81.66691406 -14.05609375 81.77132812 -15.1796875 81.87890625 C-18 82 -18 82 -20 81 C-20 55.92 -20 30.84 -20 5 C-19.67 5 -19.34 5 -19 5 C-18.15420623 21.67767161 -17.87111213 38.30282466 -17.9375 55 C-17.9425361 57.25130106 -17.9470952 59.50260325 -17.95117188 61.75390625 C-17.96198495 67.16929947 -17.97912722 72.5846366 -18 78 C-13.38 78 -8.76 78 -4 78 C-4 52.59 -4 27.18 -4 1 C-2 0 -2 0 0 0 Z " fill="#C30ACB" transform="translate(688,490)"/><path d="M0 0 C0.33 0 0.66 0 1 0 C1.04985767 5.08624889 1.08593386 10.17235197 1.10986328 15.25878906 C1.11985099 16.98505129 1.13344583 18.71129691 1.15087891 20.4375 C1.3332402 38.97398884 1.3332402 38.97398884 -1 47 C-1.27199219 47.93972656 -1.54398438 48.87945313 -1.82421875 49.84765625 C-6.4877521 61.81246805 -14.19736012 68.56320478 -25.1875 74.8125 C-36.95652655 79.78164454 -50.91946085 80.66081465 -63.03564453 76.26074219 C-71.92583197 72.59849096 -80.24760996 67.94875715 -86 60 C-86.72265625 57.734375 -86.72265625 57.734375 -87 56 C-85.86800647 56.9080162 -84.74467637 57.82683826 -83.625 58.75 C-82.68527344 59.51570312 -82.68527344 59.51570312 -81.7265625 60.296875 C-79.9141685 62.08466637 -79.09450726 63.72865529 -78 66 C-76.18703385 66.62092718 -76.18703385 66.62092718 -74 67 C-68.18987342 69.62025316 -68.18987342 69.62025316 -67 72 C-53.52745037 76.82268607 -38.09222562 76.84935179 -25 71 C-13.9273223 64.79561472 -7.81368343 57.07666418 -4 45 C-1.79576988 35.56014494 -1.65661828 25.82083408 -1.34082031 16.1706543 C-1.15956203 10.71655533 -0.77281225 5.40329887 0 0 Z " fill="#A91AE1" transform="translate(633,496)"/><path d="M0 0 C6.93 0 13.86 0 21 0 C21 23.76 21 47.52 21 72 C20.67 72 20.34 72 20 72 C19.93941406 70.74445313 19.87882813 69.48890625 19.81640625 68.1953125 C19.73190072 66.50520183 19.64725791 64.81509803 19.5625 63.125 C19.52318359 62.30257812 19.48386719 61.48015625 19.44335938 60.6328125 C19.40146484 59.8078125 19.35957031 58.9828125 19.31640625 58.1328125 C19.27974854 57.38918457 19.24309082 56.64555664 19.20532227 55.87939453 C19.08445949 54.18444135 18.94274498 52.4903613 18.7530365 50.80172729 C18.08420138 44.83582719 17.92929035 39.05114281 18.12109375 33.0546875 C18.14470474 32.15879913 18.16831573 31.26291077 18.19264221 30.33987427 C18.26835151 27.51804965 18.3527661 24.69656653 18.4375 21.875 C18.4908139 19.94532842 18.5435534 18.01564089 18.59570312 16.0859375 C18.72383867 11.39041459 18.85977428 6.69517677 19 2 C11.08 2.495 11.08 2.495 3 3 C3.00523682 4.53108398 3.01047363 6.06216797 3.01586914 7.63964844 C3.03421374 13.41731157 3.04553764 19.19497222 3.05493164 24.97265625 C3.05990548 27.45508255 3.06668692 29.93750602 3.07543945 32.41992188 C3.1265747 47.31531943 2.95202955 62.13245396 2 77 C1.34 76.67 0.68 76.34 0 76 C0 50.92 0 25.84 0 0 Z " fill="#3668EA" transform="translate(539,456)"/><path d="M0 0 C1.17028515 5.55054911 1.13405155 10.9527628 1.11352539 16.59521484 C1.11367142 17.64947662 1.11381744 18.7037384 1.1139679 19.78994751 C1.11327299 23.263632 1.10550035 26.73726241 1.09765625 30.2109375 C1.09579057 32.62374848 1.09436737 35.03655984 1.09336853 37.44937134 C1.08955517 43.79181977 1.07973495 50.13424521 1.06866455 56.47668457 C1.05842505 62.95190113 1.05386547 69.42712142 1.04882812 75.90234375 C1.03811163 88.60157229 1.02124231 101.30078492 1 114 C0.01 114.495 0.01 114.495 -1 115 C-1.73826807 109.73461682 -2.11934981 104.68927701 -2.09765625 99.36010742 C-2.09619598 98.64153061 -2.09473572 97.9229538 -2.0932312 97.18260193 C-2.08945033 95.63310741 -2.08336078 94.08361709 -2.07516479 92.53413963 C-2.06222071 90.05191055 -2.05583717 87.56973607 -2.05102539 85.08747864 C-2.03775434 78.90678105 -2.01389719 72.72613386 -1.98962402 66.54547119 C-1.96628253 60.5029775 -1.94783824 54.46049947 -1.9375 48.41796875 C-1.93597931 47.57991573 -1.93445862 46.74186272 -1.93289185 45.87841415 C-1.91567554 31.23055609 -2.28766823 16.63221678 -3 2 C-12.405 2.495 -12.405 2.495 -22 3 C-22 2.34 -22 1.68 -22 1 C-19.08340625 0.83196579 -16.16673658 0.66552033 -13.25 0.5 C-12.0125 0.42845703 -12.0125 0.42845703 -10.75 0.35546875 C-9.55117188 0.28779297 -9.55117188 0.28779297 -8.328125 0.21875 C-7.5949707 0.17685547 -6.86181641 0.13496094 -6.10644531 0.09179688 C-4.07266386 0.00316662 -2.03571175 0 0 0 Z " fill="#ED0394" transform="translate(772,457)"/><path d="M0 0 C0.99 0.33 1.98 0.66 3 1 C3.89989176 19.7446842 4.02813904 38.33555647 3.31860352 57.09033203 C3.02817979 65.1318424 2.9389209 72.99806051 4 81 C3.01 81 2.02 81 1 81 C0.67 55.92 0.34 30.84 0 5 C-2.64 10.28 -5.28 15.56 -8 21 C-8.99 21.33 -9.98 21.66 -11 22 C-9.55676531 17.26210835 -7.62773267 13.01141849 -5.375 8.625 C-4.88773438 7.66400391 -4.88773438 7.66400391 -4.390625 6.68359375 C-3.59742593 5.12052499 -2.79922969 3.55999378 -2 2 C-1.34 2 -0.68 2 0 2 C0 1.34 0 0.68 0 0 Z " fill="#EA019A" transform="translate(751,490)"/><path d="M0 0 C0.33 0 0.66 0 1 0 C3.23408259 25.28242109 3.23408259 25.28242109 -3 34 C-3.721875 35.093125 -4.44375 36.18625 -5.1875 37.3125 C-12.54168602 44.33983331 -18.65536596 46.79268138 -28.72143555 46.65771484 C-34.93404041 46.33084545 -39.84736837 44.544808 -45 41 C-45 40.67 -45 40.34 -45 40 C-41.42184825 40.43814103 -38.12659783 40.95939315 -34.6875 42.0625 C-25.64441873 44.36158846 -18.28087313 43.07027507 -10.3125 38.4375 C-6.87434899 34.81350299 -5.0301637 30.52683309 -3 26 C-2.34 26 -1.68 26 -1 26 C-0.67 17.42 -0.34 8.84 0 0 Z " fill="#9E23E8" transform="translate(613,510)"/><path d="M0 0 C3.31248187 -0.02888146 6.62493167 -0.04675799 9.9375 -0.0625 C10.88302734 -0.07087891 11.82855469 -0.07925781 12.80273438 -0.08789062 C14.15141602 -0.09272461 14.15141602 -0.09272461 15.52734375 -0.09765625 C16.77632446 -0.10551147 16.77632446 -0.10551147 18.05053711 -0.11352539 C20 0 20 0 21 1 C21.08713831 2.70772358 21.10700007 4.41898649 21.09765625 6.12890625 C21.09443359 7.16337891 21.09121094 8.19785156 21.08789062 9.26367188 C21.07951172 10.35228516 21.07113281 11.44089844 21.0625 12.5625 C21.05798828 13.65498047 21.05347656 14.74746094 21.04882812 15.87304688 C21.03699826 18.58208495 21.02051543 21.29101599 21 24 C20.67 24 20.34 24 20 24 C19.14626761 16.97195301 18.87890689 10.07721931 19 3 C17.94039062 3.01160156 16.88078125 3.02320313 15.7890625 3.03515625 C14.40104342 3.04453476 13.01302245 3.05363489 11.625 3.0625 C10.92632813 3.07087891 10.22765625 3.07925781 9.5078125 3.08789062 C4.2265625 3.11328125 4.2265625 3.11328125 2 2 C2.17402344 2.92941406 2.34804688 3.85882813 2.52734375 4.81640625 C3.24957834 9.87204837 2.86455055 14.85819019 2.5625 19.9375 C2.51029297 20.90751953 2.45808594 21.87753906 2.40429688 22.87695312 C2.27561558 25.25170788 2.14070204 27.62593229 2 30 C1.67 30 1.34 30 1 30 C0.25015295 25.99908596 -0.1195296 22.23250483 -0.09765625 18.1640625 C-0.09443359 17.10058594 -0.09121094 16.03710938 -0.08789062 14.94140625 C-0.07951172 13.84699219 -0.07113281 12.75257813 -0.0625 11.625 C-0.05798828 10.50738281 -0.05347656 9.38976562 -0.04882812 8.23828125 C-0.03709244 5.49213196 -0.02067363 2.74609414 0 0 Z " fill="#6649E9" transform="translate(612,456)"/><path d="M0 0 C1.13199353 0.9080162 2.25532363 1.82683826 3.375 2.75 C4.00148438 3.26046875 4.62796875 3.7709375 5.2734375 4.296875 C7.0858315 6.08466637 7.90549274 7.72865529 9 10 C10.81296615 10.62092718 10.81296615 10.62092718 13 11 C18.81012658 13.62025316 18.81012658 13.62025316 20 16 C20.66 16 21.32 16 22 16 C22 16.66 22 17.32 22 18 C28.33372462 19.66366214 34.27090341 20.35311527 40.8125 20.3125 C41.68036133 20.31121094 42.54822266 20.30992187 43.44238281 20.30859375 C50.32830558 20.20608653 56.45426041 19.23513059 63 17 C62 19 62 19 60.13671875 19.81640625 C44.6835403 24.52383382 30.05704791 23.80029026 15.64331055 16.38598633 C9.63877247 13.07004739 2.45533839 8.56268251 0.27734375 1.734375 C0.18582031 1.16203125 0.09429688 0.5896875 0 0 Z " fill="#8F22CD" transform="translate(546,552)"/><path d="M0 0 C0.33 0 0.66 0 1 0 C1.84579377 16.67767161 2.12888787 33.30282466 2.0625 50 C2.0574639 52.25130106 2.0529048 54.50260325 2.04882812 56.75390625 C2.03801505 62.16929947 2.02087278 67.5846366 2 73 C8.93 73.495 8.93 73.495 16 74 C16 74.33 16 74.66 16 75 C8.08 75.495 8.08 75.495 0 76 C0 50.92 0 25.84 0 0 Z " fill="#CA0EE0" transform="translate(668,495)"/><path d="M0 0 C2.02791783 0.03324455 4.05553572 0.09288496 6.08203125 0.17578125 C7.11779297 0.19833984 8.15355469 0.22089844 9.22070312 0.24414062 C11.78009529 0.30311279 14.33659076 0.38535558 16.89453125 0.48828125 C13.97628881 2.15502446 11.91858746 2.73148205 8.56640625 2.68359375 C7.7671875 2.67714844 6.96796875 2.67070312 6.14453125 2.6640625 C5.31953125 2.64730469 4.49453125 2.63054687 3.64453125 2.61328125 C2.8040625 2.60425781 1.96359375 2.59523438 1.09765625 2.5859375 C-0.97017479 2.56243942 -3.0378587 2.52657033 -5.10546875 2.48828125 C-4.77546875 3.47828125 -4.44546875 4.46828125 -4.10546875 5.48828125 C-5.41796875 8.17578125 -5.41796875 8.17578125 -7.10546875 10.48828125 C-7.76546875 10.48828125 -8.42546875 10.48828125 -9.10546875 10.48828125 C-9.39421875 11.72578125 -9.68296875 12.96328125 -9.98046875 14.23828125 C-10.71881669 17.21276867 -11.55021808 19.82213725 -13.10546875 22.48828125 C-13.76546875 22.48828125 -14.42546875 22.48828125 -15.10546875 22.48828125 C-15.04359375 23.63296875 -15.04359375 23.63296875 -14.98046875 24.80078125 C-15.10546875 27.48828125 -15.10546875 27.48828125 -17.10546875 30.48828125 C-17.76546875 30.48828125 -18.42546875 30.48828125 -19.10546875 30.48828125 C-16.75884696 22.275105 -13.06940257 14.74835497 -9.01098633 7.25463867 C-7.97681842 5.33357379 -7.97681842 5.33357379 -7.0546875 2.5234375 C-4.57162016 -0.06910375 -3.52452115 0.13285063 0 0 Z " fill="#DA0BA5" transform="translate(755.10546875,455.51171875)"/><path d="M0 0 C0.66 0 1.32 0 2 0 C2.33 1.98 2.66 3.96 3 6 C2.67 6 2.34 6 2 6 C1.67 30.75 1.34 55.5 1 81 C0.67 81 0.34 81 0 81 C-0.15357941 70.58664493 -0.30176117 60.1732286 -0.4429636 49.75969791 C-0.50869404 44.92479801 -0.57631613 40.08993969 -0.64819336 35.25512695 C-0.71743065 30.5932838 -0.78178783 25.93139696 -0.84269524 21.26943779 C-0.86685645 19.48673473 -0.89280581 17.70405503 -0.92053413 15.92140388 C-0.9589348 13.43339824 -0.99109849 10.94538707 -1.02172852 8.45727539 C-1.03467453 7.71281158 -1.04762054 6.96834778 -1.06095886 6.20132446 C-1.07905365 4.46752499 -1.04517529 2.73330528 -1 1 C-0.67 0.67 -0.34 0.34 0 0 Z " fill="#BB14C4" transform="translate(686,490)"/><path d="M0 0 C0.33 0 0.66 0 1 0 C1.04985767 5.08624889 1.08593386 10.17235197 1.10986328 15.25878906 C1.11985099 16.98505129 1.13344583 18.71129691 1.15087891 20.4375 C1.37712076 43.43431886 1.37712076 43.43431886 -3 50 C-2.73750988 44.16484834 -2.47085324 38.32990702 -2.20043945 32.49511719 C-2.10914183 30.51274696 -2.01895605 28.53032518 -1.92993164 26.54785156 C-1.80131045 23.68800606 -1.6686089 20.82837364 -1.53515625 17.96875 C-1.49656998 17.09134155 -1.4579837 16.21393311 -1.41822815 15.30993652 C-1.17326743 10.15974319 -0.70571319 5.10801931 0 0 Z " fill="#8D28DB" transform="translate(633,496)"/><path d="M0 0 C1.61310059 0.00676758 1.61310059 0.00676758 3.25878906 0.01367188 C4.4842041 0.02237305 4.4842041 0.02237305 5.734375 0.03125 C7.61421336 3.83495282 9.48365157 7.64353225 11.34350586 11.45703125 C11.97801918 12.7543307 12.61538248 14.05024017 13.25561523 15.34472656 C14.17399129 17.20281971 15.08209065 19.0656274 15.98828125 20.9296875 C16.53814697 22.05036621 17.0880127 23.17104492 17.65454102 24.32568359 C18.18905884 25.66493896 18.18905884 25.66493896 18.734375 27.03125 C18.404375 27.69125 18.074375 28.35125 17.734375 29.03125 C17.46625 28.226875 17.198125 27.4225 16.921875 26.59375 C16.53 25.748125 16.138125 24.9025 15.734375 24.03125 C14.744375 23.70125 13.754375 23.37125 12.734375 23.03125 C12.734375 21.71125 12.734375 20.39125 12.734375 19.03125 C12.074375 19.03125 11.414375 19.03125 10.734375 19.03125 C10.48042969 18.30679687 10.22648438 17.58234375 9.96484375 16.8359375 C8.14690716 11.72937405 6.31335135 6.80235625 3.734375 2.03125 C3.1775 2.11503906 2.620625 2.19882812 2.046875 2.28515625 C-3.32353608 3.00181584 -7.91945932 2.90607711 -13.265625 2.03125 C-13.265625 1.70125 -13.265625 1.37125 -13.265625 1.03125 C-8.79121956 0.21772174 -4.55335242 -0.02481391 0 0 Z " fill="#AA1ED6" transform="translate(685.265625,456.96875)"/><path d="M0 0 C0.33 0 0.66 0 1 0 C1 4.29 1 8.58 1 13 C1.66 13 2.32 13 3 13 C2.67 21.25 2.34 29.5 2 38 C1.34 37.67 0.68 37.34 0 37 C0 24.79 0 12.58 0 0 Z " fill="#4C57EC" transform="translate(539,495)"/><path d="M0 0 C0.66 0 1.32 0 2 0 C2 1.98 2 3.96 2 6 C1.34 5.67 0.68 5.34 0 5 C-0.54269531 6.14339844 -1.08539062 7.28679687 -1.64453125 8.46484375 C-2.36665687 9.95598626 -3.08934222 11.44685779 -3.8125 12.9375 C-4.16892578 13.69224609 -4.52535156 14.44699219 -4.89257812 15.22460938 C-5.24384766 15.94326172 -5.59511719 16.66191406 -5.95703125 17.40234375 C-6.27647705 18.06741943 -6.59592285 18.73249512 -6.92504883 19.41772461 C-8 21 -8 21 -11 22 C-9.55676531 17.26210835 -7.62773267 13.01141849 -5.375 8.625 C-4.88773438 7.66400391 -4.88773438 7.66400391 -4.390625 6.68359375 C-3.59742593 5.12052499 -2.79922969 3.55999378 -2 2 C-1.34 2 -0.68 2 0 2 C0 1.34 0 0.68 0 0 Z " fill="#E6039F" transform="translate(751,490)"/><path d="M0 0 C0.66 0 1.32 0 2 0 C3.53372142 2.95182453 5.04972694 5.91239243 6.5625 8.875 C7.00013672 9.71675781 7.43777344 10.55851562 7.88867188 11.42578125 C8.29794922 12.23144531 8.70722656 13.03710938 9.12890625 13.8671875 C9.70233765 14.98262939 9.70233765 14.98262939 10.28735352 16.12060547 C10.52252686 16.74080566 10.7577002 17.36100586 11 18 C10.67 18.66 10.34 19.32 10 20 C9.731875 19.195625 9.46375 18.39125 9.1875 17.5625 C8.795625 16.716875 8.40375 15.87125 8 15 C7.01 14.67 6.02 14.34 5 14 C5 12.68 5 11.36 5 10 C4.34 10 3.68 10 3 10 C0 3.375 0 3.375 0 0 Z " fill="#BB12C6" transform="translate(693,466)"/><path d="M0 0 C3.50794658 0.42954448 6.71565218 0.90134872 10.0625 2.0625 C15.79127547 3.84449237 22.07531991 3.14791157 28 3 C22.70438883 6.53040744 15.66602608 5.51140489 9.5078125 4.65234375 C5.73656432 3.8055918 2.85861183 2.62039418 0 0 Z " fill="#9223DA" transform="translate(568,550)"/><path d="M0 0 C0.66 0 1.32 0 2 0 C0.68938409 4.23429756 -0.94356259 8.07407404 -3 12 C-3.66 12 -4.32 12 -5 12 C-4.42365861 7.24518354 -2.44931479 4.02951788 0 0 Z " fill="#E303A4" transform="translate(735,521)"/><path d="M0 0 C0.6875 1.8125 0.6875 1.8125 1 4 C-0.375 5.5 -0.375 5.5 -2 7 C-2.71447643 9.10332891 -2.71447643 9.10332891 -3 11 C-3.66 11 -4.32 11 -5 11 C-5.33 11.66 -5.66 12.32 -6 13 C-5.4574852 8.44287564 -4.3106498 4.97431766 -2 1 C-1.34 0.67 -0.68 0.34 0 0 Z " fill="#E304AC" transform="translate(733,493)"/><path d="M0 0 C4.92908146 3.87792288 8.5423711 7.76116833 12 13 C8.89990231 11.61761648 6.71736127 10.01421141 4.3125 7.625 C3.71050781 7.03976562 3.10851562 6.45453125 2.48828125 5.8515625 C0.89864987 3.87391086 0.4094574 2.4785821 0 0 Z " fill="#812FDA" transform="translate(546,552)"/><path d="M0 0 C0.53625 0.28875 1.0725 0.5775 1.625 0.875 C4.35280484 2.16711808 7.12612718 3.08558592 10 4 C10 4.66 10 5.32 10 6 C10.66 6.33 11.32 6.66 12 7 C7.58682597 6.74040153 5.48336872 6.41137763 2.0625 3.5 C0 1 0 1 0 0 Z " fill="#9526E3" transform="translate(556,562)"/><path d="M0 0 C2.36253009 2.36253009 3.037848 4.31227271 4.1875 7.4375 C4.55230469 8.40558594 4.91710937 9.37367188 5.29296875 10.37109375 C6 13 6 13 5 16 C2.25785359 10.88963623 0 5.87889416 0 0 Z " fill="#E20B83" transform="translate(866,469)"/><path d="M0 0 C0.66 0 1.32 0 2 0 C2.33 3.63 2.66 7.26 3 11 C2.01 11 1.02 11 0 11 C0 7.37 0 3.74 0 0 Z " fill="#E90397" transform="translate(752,560)"/><path d="M0 0 C0 3.14668286 -0.52735129 4.31458176 -2 7 C-2.33 7.66 -2.66 8.32 -3 9 C-3.66 9 -4.32 9 -5 9 C-3.90931332 5.22454612 -3.0916909 2.52956528 0 0 Z " fill="#E005AD" transform="translate(726,507)"/><path d="M0 0 C2 1 2 1 2 1 Z " fill="#DD138E" transform="translate(802,573)"/><path d="M0 0 C2 1 2 1 2 1 Z " fill="#D4189D" transform="translate(753,573)"/><path d="M0 0 C2 1 2 1 2 1 Z " fill="#A12AD9" transform="translate(602,573)"/></svg>